<svg id="Layer_1" data-name="Layer 1" xmlns="http://www.w3.org/2000/svg" viewBox="0 0 128 128"><defs><style>.cls-1,.cls-4{fill:#18191c;}.cls-2{fill:#5e5250;}.cls-3,.cls-5{fill:#59c6ac;}.cls-3,.cls-4{fill-rule:evenodd;}</style></defs><rect class="cls-1" width="128" height="128"/><path class="cls-2" d="M100,77.1V94.81a1.41,1.41,0,0,1-1.28,1.51H90.89v8.75c0,3.8-2.6,6.9-5.79,6.9H80.8v16H45.9V112H42.29c-3.19,0-5.79-3.1-5.79-6.9V96.32H29.24A1.41,1.41,0,0,1,28,94.82V77.1a1.41,1.41,0,0,1,1.28-1.52H36.5V66.85c0-3.8,2.6-6.91,5.79-6.91h17.1V46.88l4.29,2.45L68,46.88V59.94H85.1c3.19,0,5.79,3.11,5.79,6.9v8.74h7.87A1.42,1.42,0,0,1,100,77.1Z"/><path class="cls-3" d="M84.31,79.6A7.32,7.32,0,1,1,77,72.27,7.31,7.31,0,0,1,84.31,79.6Z"/><path class="cls-3" d="M58.33,79.6A7.32,7.32,0,1,1,51,72.27,7.31,7.31,0,0,1,58.33,79.6Z"/><path class="cls-4" d="M81.22,79.82a4.23,4.23,0,0,1-8.45,0,4.09,4.09,0,0,1,.46-1.92L77,79.82V75.59A4.23,4.23,0,0,1,81.22,79.82Z"/><path class="cls-4" d="M55.23,79.82a4.22,4.22,0,0,1-8.44,0,4.15,4.15,0,0,1,1.55-3.27L51,79.82V75.59A4.22,4.22,0,0,1,55.23,79.82Z"/><rect class="cls-5" x="46.85" y="98.93" width="33.57" height="5.17"/><path class="cls-5" d="M44.33,17.32V30.07l3.3-10.84Zm1.35-2.26L48.94,17,56.69,8.7Zm5.65,27.15,11.06,6.36V44.78ZM65,44.78v3.79l11-6.36ZM70.7,8.7,78.45,17l3.26-1.91ZM83,17.23v.09l-3.31,1.91,3.35,10.84V17.32Z"/><polygon class="cls-5" points="82.67 37.95 63.69 42.35 44.68 37.95 50.39 19.31 63.69 5.05 76.98 19.29 82.67 37.95"/><path class="cls-1" d="M62.64,35.35H51.15V32.86l5.3-5.56q1.95-2.24,1.95-3.54a2.46,2.46,0,0,0-.46-1.62,1.66,1.66,0,0,0-1.35-.55,1.68,1.68,0,0,0-1.41.74,3,3,0,0,0-.54,1.85H50.81a5.45,5.45,0,0,1,.76-2.8,5.3,5.3,0,0,1,2.11-2,7.11,7.11,0,0,1,7.12.51,4.4,4.4,0,0,1,1.44,3.54,5.12,5.12,0,0,1-.36,1.89,8.64,8.64,0,0,1-1.13,1.94A29.1,29.1,0,0,1,58.29,30l-2.13,2.45h6.48Z"/><path class="cls-1" d="M76,28.62a7.87,7.87,0,0,1-1.5,5.15,5.86,5.86,0,0,1-8.48,0,7.89,7.89,0,0,1-1.5-5.14v-3A7.85,7.85,0,0,1,66,20.47a5.86,5.86,0,0,1,8.48,0A7.88,7.88,0,0,1,76,25.63Zm-3.81-3.49a5.81,5.81,0,0,0-.47-2.65,1.67,1.67,0,0,0-2.9-.07,5.81,5.81,0,0,0-.48,2.47v4.21a5.88,5.88,0,0,0,.47,2.69,1.56,1.56,0,0,0,1.47.86,1.53,1.53,0,0,0,1.43-.83,5.7,5.7,0,0,0,.48-2.61Z"/></svg>